<?xml version="1.0" encoding="UTF-8"?>
<svg version="1.1" xmlns="http://www.w3.org/2000/svg" width="256" height="256" viewBox="0 0 256 256">
<path d="M0 0 C0.81756293 -0.00579339 1.63512586 -0.01158677 2.47746342 -0.01755571 C5.22700987 -0.03564518 7.97653575 -0.0464959 10.72612 -0.05725098 C12.69397163 -0.06842511 14.66182137 -0.0799384 16.62966919 -0.09176636 C23.10409389 -0.12835509 29.57853814 -0.15355537 36.05302429 -0.1763916 C37.15530735 -0.18033747 38.2575904 -0.18428333 39.39327598 -0.18834877 C49.79495258 -0.22478162 60.19663599 -0.25621936 70.59835529 -0.27745819 C83.88940613 -0.30499891 97.17992134 -0.35569022 110.4707492 -0.43793249 C119.82211341 -0.49382943 129.17333283 -0.52270988 138.52485818 -0.5319314 C144.10572292 -0.53817415 149.68595999 -0.5561645 155.26664162 -0.60331726 C160.52570712 -0.64719953 165.7838064 -0.65740575 171.04302406 -0.64268875 C172.96419342 -0.64301563 174.88540627 -0.65515277 176.80640793 -0.68053818 C189.903661 -0.84435242 200.46616232 0.35575303 210.64033985 9.47620392 C217.77728071 16.8891333 221.20725063 24.85686531 221.23210144 35.10261536 C221.23789483 35.92017829 221.24368821 36.73774122 221.24965715 37.58007878 C221.26774662 40.32962523 221.27859734 43.07915111 221.28935242 45.82873535 C221.30052655 47.79658699 221.31203984 49.76443673 221.3238678 51.73228455 C221.36045653 58.20670924 221.38565681 64.6811535 221.40849304 71.15563965 C221.41243891 72.2579227 221.41638477 73.36020576 221.42045021 74.49589133 C221.45688306 84.89756793 221.4883208 95.29925135 221.50955963 105.70097065 C221.53710035 118.99202149 221.58779166 132.2825367 221.67003393 145.57336456 C221.72593087 154.92472877 221.75481132 164.27594819 221.76403284 173.62747353 C221.77027559 179.20833828 221.78826594 184.78857535 221.8354187 190.36925697 C221.87930097 195.62832248 221.88950719 200.88642175 221.87479019 206.14563942 C221.87511707 208.06680877 221.88725422 209.98802163 221.91263962 211.90902328 C222.07645386 225.00627636 220.87634841 235.56877768 211.75589752 245.74295521 C204.34296814 252.87989606 196.37523613 256.30986599 186.12948608 256.3347168 C184.90314169 256.34340688 184.90314169 256.34340688 183.65202266 256.35227251 C180.90247621 256.37036198 178.15295033 256.3812127 175.40336609 256.39196777 C173.43551445 256.40314191 171.46766471 256.4146552 169.49981689 256.42648315 C163.0253922 256.46307188 156.55094794 256.48827216 150.07646179 256.5111084 C148.97417874 256.51505426 147.87189568 256.51900013 146.73621011 256.52306557 C136.33453351 256.55949842 125.93285009 256.59093616 115.53113079 256.61217499 C102.24007995 256.6397157 88.94956474 256.69040702 75.65873688 256.77264929 C66.30737267 256.82854622 56.95615325 256.85742668 47.60462791 256.8666482 C42.02376316 256.87289095 36.4435261 256.89088129 30.86284447 256.93803406 C25.60377896 256.98191632 20.34567969 256.99212255 15.08646202 256.97740555 C13.16529267 256.97773243 11.24407982 256.98986957 9.32307816 257.01525497 C-3.77417492 257.17906921 -14.33667623 255.97896377 -24.51085377 246.85851288 C-31.64779462 239.4455835 -35.07776455 231.47785148 -35.10261536 221.23210144 C-35.10840874 220.41453851 -35.11420213 219.59697558 -35.12017107 218.75463802 C-35.13826054 216.00509157 -35.14911126 213.25556569 -35.15986633 210.50598145 C-35.17104047 208.53812981 -35.18255376 206.57028007 -35.19438171 204.60243225 C-35.23097044 198.12800755 -35.25617072 191.6535633 -35.27900696 185.17907715 C-35.28295282 184.07679409 -35.28689869 182.97451104 -35.29096413 181.83882546 C-35.32739697 171.43714886 -35.35883472 161.03546545 -35.38007355 150.63374615 C-35.40761426 137.34269531 -35.45830558 124.0521801 -35.54054785 110.76135224 C-35.59644478 101.40998803 -35.62532524 92.05876861 -35.63454676 82.70724326 C-35.6407895 77.12637852 -35.65877985 71.54614145 -35.70593262 65.96545982 C-35.74981488 60.70639432 -35.76002111 55.44829505 -35.74530411 50.18907738 C-35.74563099 48.26790802 -35.75776813 46.34669517 -35.78315353 44.42569351 C-35.94696777 31.32844044 -34.74686233 20.76593912 -25.62641144 10.59176159 C-18.21348206 3.45482073 -10.24575004 0.02485081 0 0 Z " fill="#D1DEFE" transform="translate(34.93525695800781,-0.1673583984375)"/>
<path d="M0 0 C9.13990497 4.35103261 15.60246136 11.5193614 19.390625 20.92578125 C23.28498425 35.36736346 17.763587 49.85085947 12.234375 63.0546875 C11.93917969 63.77269531 11.64398438 64.49070312 11.33984375 65.23046875 C7.5807644 73.52104102 1.83979817 82.58169991 -6.765625 86.0546875 C-7.425625 86.0546875 -8.085625 86.0546875 -8.765625 86.0546875 C-8.71921875 87.29605469 -8.6728125 88.53742188 -8.625 89.81640625 C-8.58747079 91.45830921 -8.55107186 93.10023827 -8.515625 94.7421875 C-8.48210937 95.55880859 -8.44859375 96.37542969 -8.4140625 97.21679688 C-8.34700484 101.35760757 -8.40715726 103.482176 -10.65625 107.07421875 C-14.19413965 110.39590403 -16.87643712 110.38902854 -21.5703125 110.34375 C-23.765625 110.0546875 -23.765625 110.0546875 -26.265625 108.2421875 C-29.99489508 102.80366863 -28.82816703 96.37143218 -28.765625 90.0546875 C-29.59877731 90.1963887 -30.43192963 90.3380899 -31.29032898 90.48408508 C-42.64695393 92.22402101 -53.81393882 92.32999313 -65.28515625 92.28515625 C-67.32158885 92.28396141 -69.35802202 92.28351193 -71.39445496 92.2837677 C-75.6276706 92.28221558 -79.86080013 92.27401701 -84.09399414 92.26049805 C-89.52689025 92.24336799 -94.95969344 92.23968842 -100.39261341 92.24044323 C-104.58148591 92.24017208 -108.77033799 92.2347021 -112.95920372 92.22744179 C-114.96434055 92.22425751 -116.96947969 92.22228827 -118.97461891 92.22154808 C-121.7602196 92.21938997 -124.54571963 92.21066142 -127.33129883 92.19995117 C-128.16081055 92.20040436 -128.99032227 92.20085754 -129.8449707 92.20132446 C-135.53664057 92.16917971 -135.53664057 92.16917971 -137.765625 91.0546875 C-137.71921875 92.00730469 -137.6728125 92.95992188 -137.625 93.94140625 C-137.57085937 95.82279297 -137.57085937 95.82279297 -137.515625 97.7421875 C-137.46921875 98.98355469 -137.4228125 100.22492188 -137.375 101.50390625 C-137.82990934 105.63903219 -138.80958178 107.1890269 -141.765625 110.0546875 C-145.40968562 111.26937437 -149.01149699 111.97603027 -152.765625 111.0546875 C-155.61296123 109.03596267 -157.49354128 107.49485477 -158.16210938 103.95605469 C-158.2577062 101.53257359 -158.20237853 99.16417554 -158.078125 96.7421875 C-158.05556641 95.90623047 -158.03300781 95.07027344 -158.00976562 94.20898438 C-157.9511311 92.15677601 -157.86145715 90.10549548 -157.765625 88.0546875 C-158.67441406 87.95027344 -159.58320313 87.84585938 -160.51953125 87.73828125 C-168.04305072 86.15390591 -172.97001321 79.10800664 -177.0390625 72.9765625 C-185.93316764 57.92499996 -192.4811723 41.15851668 -189.29296875 23.42578125 C-186.62494452 14.23947027 -180.94730552 6.93063852 -172.765625 2.0546875 C-167.37747754 -0.46742408 -161.27133359 -1.16414309 -155.5859375 0.8125 C-149.69473882 3.63582918 -144.65326269 7.01085764 -141.48828125 12.91796875 C-140.05665424 17.1509416 -140.1639961 21.66139742 -140.765625 26.0546875 C-141.425625 27.0446875 -142.085625 28.0346875 -142.765625 29.0546875 C-142.93261732 32.17990583 -142.93261732 32.17990583 -142.765625 35.0546875 C-140.96582768 35.8405892 -140.96582768 35.8405892 -138.765625 36.0546875 C-136.77010838 34.85198962 -136.77010838 34.85198962 -134.953125 32.9921875 C-134.25316406 32.34378906 -133.55320313 31.69539063 -132.83203125 31.02734375 C-131.80916016 30.05087891 -131.80916016 30.05087891 -130.765625 29.0546875 C-117.43815053 16.45251776 -99.0652339 12.54832093 -81.125 12.84375 C-64.40540676 13.4478031 -49.71458445 18.44068529 -37.47021484 30.00366211 C-34.35745008 32.91466505 -32.13592404 34.88872678 -27.765625 35.0546875 C-26.44142251 33.9503483 -26.44142251 33.9503483 -26.578125 31.1796875 C-26.51218987 27.88897992 -26.51218987 27.88897992 -28.765625 25.0546875 C-29.43842174 19.63319746 -29.51438692 14.67201325 -27.203125 9.6796875 C-19.40791649 1.28484756 -11.84006021 -4.04702623 0 0 Z " fill="#1344C1" transform="translate(212.765625,118.9453125)"/>
<path d="M0 0 C1.15242188 0.40992188 2.30484375 0.81984375 3.4921875 1.2421875 C18.54466693 6.7520933 32.38509246 16.17466314 39.71484375 30.875 C45.82320239 45.72815171 47.38394384 62.42134241 43 78 C36.65458796 79.89012274 36.65458796 79.89012274 33.8125 80.3671875 C26.85616769 81.55073015 21.82449861 84.29513818 17.49609375 89.97265625 C13.90086086 95.88600946 12.39922296 102.27690432 11 109 C7.70071516 108.05734719 5.14049562 107.0980202 2.3125 105.125 C-2.19120607 102.23583007 -6.95003064 100.69842019 -12 99 C-13.093125 98.608125 -14.18625 98.21625 -15.3125 97.8125 C-22.0767908 95.76748185 -28.74385931 95.81680353 -35.75 95.8125 C-36.78382812 95.80025391 -37.81765625 95.78800781 -38.8828125 95.77539062 C-48.89027633 95.75648484 -57.48656559 97.41553334 -66.6875 101.3125 C-67.39455078 101.59544922 -68.10160156 101.87839844 -68.83007812 102.16992188 C-72.50050275 103.69560068 -75.68405846 105.37512577 -78.89453125 107.73046875 C-82 110 -82 110 -84 110 C-84.14695313 109.16597656 -84.29390625 108.33195312 -84.4453125 107.47265625 C-86.40706524 97.63006921 -89.01886623 90.3322267 -97.5625 84.5625 C-103.38218399 81.35501004 -109.45563628 80.59494216 -116 80 C-120.6675175 64.0248657 -121.27853096 46.55758984 -113.28393555 31.52075195 C-105.98013254 18.57051423 -95.89284501 8.74625527 -82 3 C-80.59814453 2.40251953 -80.59814453 2.40251953 -79.16796875 1.79296875 C-54.10429557 -8.04816509 -25.31566601 -9.68670179 0 0 Z " fill="#AAADB4" transform="translate(163,29)"/>
</svg>
